<svg width="103" height="22" viewBox="0 0 103 22" fill="none" xmlns="http://www.w3.org/2000/svg">
<path d="M38.24 13.292C38.312 13.64 38.444 13.928 38.636 14.156C38.828 14.384 39.074 14.558 39.374 14.678C39.674 14.786 40.016 14.84 40.4 14.84C41.036 14.84 41.516 14.702 41.84 14.426C42.164 14.15 42.326 13.808 42.326 13.4C42.326 13.064 42.224 12.794 42.02 12.59C41.828 12.374 41.546 12.194 41.174 12.05C40.814 11.906 40.4 11.762 39.932 11.618C39.452 11.486 38.972 11.336 38.492 11.168C38.012 10.988 37.568 10.772 37.16 10.52C36.764 10.256 36.446 9.914 36.206 9.494C35.966 9.074 35.852 8.552 35.864 7.928C35.864 7.148 36.056 6.488 36.44 5.948C36.836 5.396 37.37 4.982 38.042 4.706C38.726 4.418 39.512 4.274 40.4 4.274C41.18 4.274 41.876 4.388 42.488 4.616C43.1 4.832 43.61 5.162 44.018 5.606C44.426 6.038 44.714 6.572 44.882 7.208L42.326 7.766C42.278 7.502 42.158 7.28 41.966 7.1C41.786 6.908 41.564 6.77 41.3 6.686C41.036 6.59 40.766 6.536 40.49 6.524C40.154 6.524 39.848 6.578 39.572 6.686C39.308 6.794 39.092 6.95 38.924 7.154C38.768 7.358 38.69 7.592 38.69 7.856C38.69 8.156 38.78 8.402 38.96 8.594C39.152 8.774 39.41 8.93 39.734 9.062C40.058 9.194 40.412 9.326 40.796 9.458C41.288 9.614 41.786 9.782 42.29 9.962C42.806 10.142 43.28 10.376 43.712 10.664C44.144 10.94 44.492 11.3 44.756 11.744C45.02 12.176 45.152 12.716 45.152 13.364C45.152 14.072 44.984 14.708 44.648 15.272C44.312 15.836 43.802 16.286 43.118 16.622C42.446 16.958 41.594 17.126 40.562 17.126C39.698 17.126 38.924 17 38.24 16.748C37.556 16.496 36.992 16.13 36.548 15.65C36.104 15.17 35.81 14.588 35.666 13.904L38.24 13.292ZM46.8185 4.04H49.4465V8.936C49.7225 8.624 50.0585 8.372 50.4545 8.18C50.8625 7.976 51.3245 7.874 51.8405 7.874C52.5245 7.874 53.1185 8.024 53.6225 8.324C54.1265 8.624 54.5165 9.062 54.7925 9.638C55.0685 10.214 55.2065 10.916 55.2065 11.744V17H52.4345V12.068C52.4345 11.468 52.3085 11.012 52.0565 10.7C51.8165 10.388 51.4505 10.232 50.9585 10.232C50.4545 10.232 50.0765 10.412 49.8245 10.772C49.5725 11.132 49.4465 11.618 49.4465 12.23V17H46.8185V4.04ZM61.2778 17.126C60.4018 17.126 59.6158 16.94 58.9198 16.568C58.2238 16.196 57.6778 15.662 57.2817 14.966C56.8978 14.27 56.7058 13.448 56.7058 12.5C56.7058 11.552 56.9038 10.736 57.2998 10.052C57.7078 9.356 58.2598 8.822 58.9558 8.45C59.6638 8.066 60.4498 7.874 61.3138 7.874C62.2018 7.874 62.9938 8.066 63.6898 8.45C64.3978 8.822 64.9558 9.356 65.3638 10.052C65.7718 10.736 65.9758 11.546 65.9758 12.482C65.9758 13.442 65.7658 14.27 65.3457 14.966C64.9378 15.662 64.3738 16.196 63.6538 16.568C62.9458 16.94 62.1538 17.126 61.2778 17.126ZM61.2778 14.75C61.5898 14.75 61.8898 14.666 62.1778 14.498C62.4658 14.33 62.6938 14.084 62.8618 13.76C63.0418 13.424 63.1318 13.004 63.1318 12.5C63.1318 11.996 63.0418 11.582 62.8618 11.258C62.6938 10.922 62.4718 10.67 62.1958 10.502C61.9198 10.334 61.6258 10.25 61.3138 10.25C60.9778 10.25 60.6778 10.334 60.4138 10.502C60.1498 10.67 59.9338 10.922 59.7658 11.258C59.6098 11.582 59.5318 11.996 59.5318 12.5C59.5318 13.004 59.6098 13.424 59.7658 13.76C59.9218 14.084 60.1318 14.33 60.3958 14.498C60.6598 14.666 60.9538 14.75 61.2778 14.75ZM71.9059 17H69.1339L66.5959 8H69.3319L70.5919 13.472L71.9779 8H74.6599L76.0099 13.508L77.2699 8H79.9879L77.4499 17H74.5879L73.2559 11.834L71.9059 17ZM81.3244 4.04H83.9524V17H81.3244V4.04ZM90.1235 17.126C89.1995 17.126 88.3955 16.934 87.7115 16.55C87.0275 16.154 86.4935 15.602 86.1095 14.894C85.7375 14.186 85.5515 13.358 85.5515 12.41C85.5515 11.534 85.7375 10.754 86.1095 10.07C86.4815 9.386 87.0035 8.852 87.6755 8.468C88.3475 8.072 89.1095 7.874 89.9615 7.874C90.8615 7.874 91.6415 8.06 92.3015 8.432C92.9615 8.792 93.4775 9.308 93.8495 9.98C94.2215 10.652 94.4075 11.432 94.4075 12.32C94.4075 12.464 94.4015 12.614 94.3895 12.77C94.3775 12.926 94.3595 13.1 94.3355 13.292H88.3595C88.4195 13.616 88.5335 13.898 88.7015 14.138C88.8695 14.366 89.0795 14.546 89.3315 14.678C89.5955 14.798 89.8955 14.858 90.2315 14.858C90.6035 14.858 90.9395 14.78 91.2395 14.624C91.5395 14.468 91.7615 14.246 91.9055 13.958L94.2635 14.606C93.9035 15.41 93.3635 16.034 92.6435 16.478C91.9235 16.91 91.0835 17.126 90.1235 17.126ZM91.5455 11.582C91.5335 11.282 91.4555 11.018 91.3115 10.79C91.1675 10.562 90.9815 10.382 90.7535 10.25C90.5255 10.118 90.2735 10.058 89.9975 10.07C89.7215 10.082 89.4695 10.154 89.2415 10.286C89.0255 10.406 88.8395 10.58 88.6835 10.808C88.5275 11.024 88.4315 11.282 88.3955 11.582H91.5455ZM96.0021 8H98.3961L98.5761 9.188C98.8041 8.876 99.0741 8.618 99.3861 8.414C99.7101 8.198 100.064 8.054 100.448 7.982C100.844 7.91 101.276 7.916 101.744 8V10.484C101.432 10.376 101.096 10.346 100.736 10.394C100.376 10.43 100.034 10.55 99.7101 10.754C99.3861 10.946 99.1221 11.234 98.9181 11.618C98.7261 12.002 98.6301 12.488 98.6301 13.076V17H96.0021V8Z" fill="#212121"/>
<path d="M15.3405 6.09088C15.8096 5.62063 16.0999 4.97174 16.0999 4.2548C16.0999 2.819 14.9358 1.65493 13.5 1.65493C12.5923 1.65493 11.7942 2.12094 11.3292 2.82593C11.2056 2.94966 0.856083 15.7057 0.759335 15.8524C0.290242 16.3227 0 16.9718 0 17.6883C0 19.1243 1.16406 20.2884 2.59986 20.2884C3.50759 20.2884 4.30567 19.8225 4.77072 19.1174C4.89425 18.9936 15.2438 6.23735 15.3405 6.09088Z" fill="#212121"/>
<path d="M21.3295 12.1436C21.8 11.673 22.0908 11.0233 22.0908 10.3054C22.0908 8.86959 20.9267 7.70554 19.4909 7.70554C18.5828 7.70554 17.7843 8.17193 17.3193 8.8775C17.1948 9.00219 11.759 15.7027 11.6617 15.8503C11.1912 16.3209 10.9004 16.9706 10.9004 17.6883C10.9004 19.1243 12.0644 20.2884 13.5003 20.2884C14.4084 20.2884 15.2068 19.822 15.6717 19.1164C15.7962 18.9919 21.2322 12.2912 21.3295 12.1436Z" fill="#D94625"/>
<path d="M27 4.25482C27 5.69081 25.836 6.85468 24.4002 6.85468C22.9642 6.85468 21.8003 5.69081 21.8003 4.25482C21.8003 2.81901 22.9642 1.65495 24.4002 1.65495C25.836 1.65495 27 2.81901 27 4.25482Z" fill="#212121"/>
<path d="M5.19972 4.25482C5.19972 5.69081 4.03566 6.85468 2.59986 6.85468C1.16406 6.85468 0 5.69081 0 4.25482C0 2.81901 1.16406 1.65495 2.59986 1.65495C4.03566 1.65495 5.19972 2.81901 5.19972 4.25482Z" fill="#D94625"/>
</svg>
