<svg width="105" height="25" viewBox="0 0 105 25" fill="none" xmlns="http://www.w3.org/2000/svg">
<path d="M39.17 10.468C38.822 9.832 38.378 9.37 37.838 9.082C37.31 8.782 36.716 8.632 36.056 8.632C35.36 8.632 34.73 8.812 34.166 9.172C33.614 9.52 33.176 10 32.852 10.612C32.54 11.224 32.384 11.92 32.384 12.7C32.384 13.516 32.54 14.23 32.852 14.842C33.164 15.442 33.602 15.916 34.166 16.264C34.73 16.6 35.39 16.768 36.146 16.768C36.614 16.768 37.046 16.69 37.442 16.534C37.838 16.366 38.192 16.138 38.504 15.85C38.816 15.562 39.08 15.232 39.296 14.86V14.068H36.056V11.872H41.906V15.364C41.618 16.024 41.198 16.642 40.646 17.218C40.094 17.782 39.428 18.244 38.648 18.604C37.868 18.952 36.98 19.126 35.984 19.126C35.048 19.126 34.19 18.97 33.41 18.658C32.63 18.346 31.952 17.902 31.376 17.326C30.8 16.75 30.35 16.072 30.026 15.292C29.714 14.5 29.558 13.636 29.558 12.7C29.558 11.764 29.714 10.906 30.026 10.126C30.35 9.334 30.794 8.65 31.358 8.074C31.934 7.498 32.612 7.054 33.392 6.742C34.172 6.43 35.03 6.274 35.966 6.274C36.842 6.274 37.664 6.412 38.432 6.688C39.212 6.964 39.89 7.366 40.466 7.894C41.042 8.41 41.468 9.04 41.744 9.784L39.17 10.468ZM43.5783 10H45.9723L46.1523 11.188C46.3803 10.876 46.6503 10.618 46.9623 10.414C47.2863 10.198 47.6403 10.054 48.0243 9.982C48.4203 9.91 48.8523 9.916 49.3203 10V12.484C49.0083 12.376 48.6723 12.346 48.3123 12.394C47.9523 12.43 47.6103 12.55 47.2863 12.754C46.9623 12.946 46.6983 13.234 46.4943 13.618C46.3023 14.002 46.2063 14.488 46.2063 15.076V19H43.5783V10ZM58.7987 19H56.4047L56.2247 18.01C55.9247 18.346 55.5707 18.616 55.1627 18.82C54.7667 19.024 54.3287 19.126 53.8487 19.126C53.1767 19.126 52.5947 18.976 52.1027 18.676C51.6107 18.376 51.2267 17.938 50.9507 17.362C50.6747 16.774 50.5367 16.072 50.5367 15.256V10H53.1647V14.932C53.1647 15.532 53.2847 15.988 53.5247 16.3C53.7767 16.612 54.1547 16.768 54.6587 16.768C55.1387 16.768 55.5107 16.606 55.7747 16.282C56.0387 15.958 56.1707 15.496 56.1707 14.896V10H58.7987V19ZM63.0729 17.614L63.4329 17.596V22.6H60.8049V10H63.1809L63.3429 11.134C63.5709 10.786 63.9189 10.492 64.3869 10.252C64.8549 10 65.3829 9.874 65.9709 9.874C66.7269 9.874 67.3989 10.066 67.9869 10.45C68.5749 10.822 69.0369 11.356 69.3729 12.052C69.7209 12.736 69.8949 13.552 69.8949 14.5C69.8949 15.436 69.7269 16.252 69.3909 16.948C69.0549 17.644 68.5869 18.184 67.9869 18.568C67.3989 18.94 66.7269 19.126 65.9709 19.126C65.2749 19.126 64.6809 18.976 64.1889 18.676C63.7089 18.376 63.3369 18.022 63.0729 17.614ZM67.0689 14.5C67.0689 13.84 66.9009 13.312 66.5649 12.916C66.2289 12.508 65.7909 12.304 65.2509 12.304C64.9149 12.304 64.6089 12.388 64.3329 12.556C64.0569 12.724 63.8349 12.97 63.6669 13.294C63.5109 13.618 63.4329 14.02 63.4329 14.5C63.4329 14.968 63.5109 15.37 63.6669 15.706C63.8349 16.03 64.0569 16.282 64.3329 16.462C64.6089 16.63 64.9149 16.714 65.2509 16.714C65.7909 16.714 66.2289 16.51 66.5649 16.102C66.9009 15.694 67.0689 15.16 67.0689 14.5ZM87.3373 6.4V19H84.5293L79.4173 10.81V19H76.6273V6.4H79.4533L84.5473 14.626V6.4H87.3373ZM89.7816 10H92.4096V19H89.7816V10ZM91.0956 9.082C90.6036 9.082 90.2016 8.938 89.8896 8.65C89.5896 8.35 89.4396 7.99 89.4396 7.57C89.4396 7.138 89.5896 6.778 89.8896 6.49C90.2016 6.19 90.6036 6.04 91.0956 6.04C91.5756 6.04 91.9656 6.19 92.2656 6.49C92.5776 6.778 92.7336 7.138 92.7336 7.57C92.7336 7.99 92.5776 8.35 92.2656 8.65C91.9656 8.938 91.5756 9.082 91.0956 9.082ZM94.1187 10H97.2147L98.9067 12.61L100.581 10H103.659L100.491 14.482L103.659 19H100.581L98.9067 16.39L97.2147 19H94.1187L97.3047 14.482L94.1187 10Z" fill="#212121"/>
<path d="M12.1313 24.722V17.6965C12.1313 12.7985 16.1017 8.82801 20.9997 8.82801V15.8537C20.9997 20.7515 17.0291 24.722 12.1313 24.722Z" fill="#212121"/>
<path d="M9.87722 20.0478V9.87743C9.87722 4.42221 5.45502 1.13716e-05 0 1.13716e-05V10.1704C0 15.6256 4.4222 20.0478 9.87722 20.0478Z" fill="#212121"/>
<path d="M18.8385 4.22706C18.8385 6.07915 17.337 7.58063 15.4847 7.58063C13.6326 7.58063 12.1313 6.07915 12.1313 4.22706C12.1313 2.37496 13.6326 0.873488 15.4847 0.873488C17.337 0.873488 18.8385 2.37496 18.8385 4.22706Z" fill="#D94625"/>
</svg>
