<svg width="106" height="22" viewBox="0 0 106 22" fill="none" xmlns="http://www.w3.org/2000/svg">
<path d="M47.26 6.722H40.888V9.512H45.658V11.726H40.888V14.678H47.26V17H38.098V4.4H47.26V6.722ZM53.0619 17.126C52.1859 17.138 51.4119 16.952 50.7399 16.568C50.0679 16.172 49.5459 15.632 49.1739 14.948C48.8019 14.252 48.6159 13.442 48.6159 12.518C48.6159 11.606 48.8019 10.802 49.1739 10.106C49.5459 9.398 50.0679 8.852 50.7399 8.468C51.4119 8.072 52.1859 7.874 53.0619 7.874C54.0579 7.874 54.9279 8.126 55.6719 8.63C56.4279 9.122 56.9559 9.8 57.2559 10.664L54.7719 11.276C54.6519 10.952 54.4539 10.7 54.1779 10.52C53.9019 10.34 53.5839 10.25 53.2239 10.25C52.8639 10.25 52.5459 10.346 52.2699 10.538C51.9939 10.73 51.7779 11 51.6219 11.348C51.4779 11.684 51.4059 12.074 51.4059 12.518C51.4059 13.19 51.5739 13.73 51.9099 14.138C52.2459 14.546 52.6839 14.75 53.2239 14.75C53.5719 14.75 53.8839 14.666 54.1599 14.498C54.4359 14.318 54.6519 14.066 54.8079 13.742L57.2739 14.372C56.9739 15.2 56.4399 15.866 55.6719 16.37C54.9159 16.862 54.0459 17.114 53.0619 17.126ZM58.8732 4.04H61.5012V17H58.8732V4.04ZM63.8383 8H66.4663V17H63.8383V8ZM65.1523 7.082C64.6603 7.082 64.2583 6.938 63.9463 6.65C63.6463 6.35 63.4963 5.99 63.4963 5.57C63.4963 5.138 63.6463 4.778 63.9463 4.49C64.2583 4.19 64.6603 4.04 65.1523 4.04C65.6323 4.04 66.0223 4.19 66.3223 4.49C66.6343 4.778 66.7903 5.138 66.7903 5.57C66.7903 5.99 66.6343 6.35 66.3223 6.65C66.0223 6.938 65.6323 7.082 65.1523 7.082ZM71.0553 15.614L71.4153 15.596V20.6H68.7873V8H71.1633L71.3253 9.134C71.5533 8.786 71.9013 8.492 72.3693 8.252C72.8373 8 73.3653 7.874 73.9533 7.874C74.7093 7.874 75.3813 8.066 75.9693 8.45C76.5573 8.822 77.0193 9.356 77.3553 10.052C77.7033 10.736 77.8773 11.552 77.8773 12.5C77.8773 13.436 77.7093 14.252 77.3733 14.948C77.0373 15.644 76.5693 16.184 75.9693 16.568C75.3813 16.94 74.7093 17.126 73.9533 17.126C73.2573 17.126 72.6633 16.976 72.1713 16.676C71.6913 16.376 71.3193 16.022 71.0553 15.614ZM75.0513 12.5C75.0513 11.84 74.8833 11.312 74.5473 10.916C74.2113 10.508 73.7733 10.304 73.2333 10.304C72.8973 10.304 72.5913 10.388 72.3153 10.556C72.0393 10.724 71.8173 10.97 71.6493 11.294C71.4933 11.618 71.4153 12.02 71.4153 12.5C71.4153 12.968 71.4933 13.37 71.6493 13.706C71.8173 14.03 72.0393 14.282 72.3153 14.462C72.5913 14.63 72.8973 14.714 73.2333 14.714C73.7733 14.714 74.2113 14.51 74.5473 14.102C74.8833 13.694 75.0513 13.16 75.0513 12.5ZM81.4548 14.048C81.5148 14.276 81.6108 14.462 81.7428 14.606C81.8868 14.738 82.0548 14.834 82.2468 14.894C82.4388 14.954 82.6368 14.984 82.8408 14.984C83.2128 14.984 83.5008 14.918 83.7048 14.786C83.9088 14.654 84.0108 14.486 84.0108 14.282C84.0108 14.078 83.9328 13.928 83.7768 13.832C83.6328 13.724 83.4408 13.64 83.2008 13.58C82.9608 13.508 82.7088 13.442 82.4448 13.382C82.1448 13.31 81.8088 13.226 81.4368 13.13C81.0648 13.022 80.7108 12.878 80.3748 12.698C80.0388 12.506 79.7628 12.254 79.5468 11.942C79.3308 11.618 79.2228 11.216 79.2228 10.736C79.2228 10.184 79.3728 9.692 79.6728 9.26C79.9728 8.828 80.3988 8.492 80.9508 8.252C81.5028 8 82.1568 7.874 82.9128 7.874C83.8488 7.874 84.6108 8.066 85.1988 8.45C85.7868 8.834 86.2008 9.374 86.4408 10.07L84.1548 10.646C84.0948 10.49 84.0048 10.37 83.8848 10.286C83.7648 10.19 83.6148 10.124 83.4348 10.088C83.2668 10.04 83.0988 10.016 82.9308 10.016C82.6188 10.016 82.3728 10.076 82.1928 10.196C82.0128 10.316 81.9228 10.466 81.9228 10.646C81.9228 10.766 81.9588 10.868 82.0308 10.952C82.1148 11.036 82.2228 11.102 82.3548 11.15C82.4988 11.198 82.6608 11.24 82.8408 11.276C83.0328 11.312 83.2368 11.36 83.4528 11.42C83.8128 11.504 84.1788 11.606 84.5508 11.726C84.9348 11.846 85.2888 12.008 85.6128 12.212C85.9488 12.404 86.2128 12.668 86.4048 13.004C86.6088 13.328 86.7168 13.748 86.7288 14.264C86.7288 14.792 86.5788 15.278 86.2788 15.722C85.9788 16.154 85.5408 16.496 84.9648 16.748C84.3888 17 83.6868 17.126 82.8588 17.126C81.8628 17.126 81.0288 16.922 80.3568 16.514C79.6848 16.106 79.2588 15.476 79.0788 14.624L81.4548 14.048ZM92.4926 17.126C91.6166 17.126 90.8306 16.94 90.1346 16.568C89.4386 16.196 88.8926 15.662 88.4966 14.966C88.1126 14.27 87.9206 13.448 87.9206 12.5C87.9206 11.552 88.1186 10.736 88.5146 10.052C88.9226 9.356 89.4746 8.822 90.1706 8.45C90.8786 8.066 91.6646 7.874 92.5286 7.874C93.4166 7.874 94.2086 8.066 94.9046 8.45C95.6126 8.822 96.1706 9.356 96.5786 10.052C96.9866 10.736 97.1906 11.546 97.1906 12.482C97.1906 13.442 96.9806 14.27 96.5606 14.966C96.1526 15.662 95.5886 16.196 94.8686 16.568C94.1606 16.94 93.3686 17.126 92.4926 17.126ZM92.4926 14.75C92.8046 14.75 93.1046 14.666 93.3926 14.498C93.6806 14.33 93.9086 14.084 94.0766 13.76C94.2566 13.424 94.3466 13.004 94.3466 12.5C94.3466 11.996 94.2566 11.582 94.0766 11.258C93.9086 10.922 93.6866 10.67 93.4106 10.502C93.1346 10.334 92.8406 10.25 92.5286 10.25C92.1926 10.25 91.8926 10.334 91.6286 10.502C91.3646 10.67 91.1486 10.922 90.9806 11.258C90.8246 11.582 90.7466 11.996 90.7466 12.5C90.7466 13.004 90.8246 13.424 90.9806 13.76C91.1366 14.084 91.3466 14.33 91.6106 14.498C91.8746 14.666 92.1686 14.75 92.4926 14.75Z" fill="#212121"/>
<path d="M10.6943 10.3387C10.6943 13.4645 12.2659 16.2287 14.6588 17.887C17.0374 16.2036 18.593 13.4322 18.593 10.2961C18.593 7.18647 17.064 4.43531 14.7191 2.74772C12.2908 4.40108 10.6943 7.18664 10.6943 10.3387Z" fill="#D94625"/>
<path d="M9.41371 10.3387C9.41371 6.95179 11.0332 3.93723 13.5378 2.02472C12.266 1.37108 10.8239 1 9.29664 1C4.16204 1 0 5.16203 0 10.2961C0 15.4302 4.16204 19.5922 9.29664 19.5922C10.799 19.5922 12.2163 19.2337 13.4722 18.601C11.0048 16.6862 9.41371 13.6958 9.41371 10.3387Z" fill="#212121"/>
<path d="M19.8721 2.49053C15.5458 2.49053 12.0248 6.01133 12.0248 10.3387C12.0248 14.6664 15.5458 18.1869 19.8721 18.1869C24.2002 18.1869 27.7211 14.6664 27.7211 10.3387C27.7211 6.01133 24.2002 2.49053 19.8721 2.49053ZM19.8721 19.4668C14.8398 19.4668 10.7441 15.372 10.7441 10.3387C10.7441 5.30536 14.8398 1.21056 19.8721 1.21056C24.9061 1.21056 29 5.30536 29 10.3387C29 15.372 24.9061 19.4668 19.8721 19.4668Z" fill="#212121"/>
</svg>
