<svg width="97" height="23" viewBox="0 0 97 23" fill="none" xmlns="http://www.w3.org/2000/svg">
<path d="M37.5362 9.468C37.1882 8.832 36.7442 8.37 36.2042 8.082C35.6762 7.782 35.0822 7.632 34.4222 7.632C33.7262 7.632 33.0962 7.812 32.5322 8.172C31.9802 8.52 31.5422 9 31.2182 9.612C30.9062 10.224 30.7502 10.92 30.7502 11.7C30.7502 12.516 30.9062 13.23 31.2182 13.842C31.5302 14.442 31.9682 14.916 32.5322 15.264C33.0962 15.6 33.7562 15.768 34.5122 15.768C34.9802 15.768 35.4122 15.69 35.8082 15.534C36.2042 15.366 36.5582 15.138 36.8702 14.85C37.1822 14.562 37.4462 14.232 37.6622 13.86V13.068H34.4222V10.872H40.2722V14.364C39.9842 15.024 39.5642 15.642 39.0122 16.218C38.4602 16.782 37.7942 17.244 37.0142 17.604C36.2342 17.952 35.3462 18.126 34.3502 18.126C33.4142 18.126 32.5562 17.97 31.7762 17.658C30.9962 17.346 30.3182 16.902 29.7422 16.326C29.1662 15.75 28.7162 15.072 28.3922 14.292C28.0802 13.5 27.9242 12.636 27.9242 11.7C27.9242 10.764 28.0802 9.906 28.3922 9.126C28.7162 8.334 29.1602 7.65 29.7242 7.074C30.3002 6.498 30.9782 6.054 31.7582 5.742C32.5382 5.43 33.3962 5.274 34.3322 5.274C35.2082 5.274 36.0302 5.412 36.7982 5.688C37.5782 5.964 38.2562 6.366 38.8322 6.894C39.4082 7.41 39.8342 8.04 40.1102 8.784L37.5362 9.468ZM47.1465 18L46.9665 16.884C46.6545 17.268 46.3185 17.568 45.9585 17.784C45.5985 18 45.1125 18.108 44.5005 18.108C43.9485 18.108 43.4505 18.012 43.0065 17.82C42.5625 17.616 42.2085 17.322 41.9445 16.938C41.6925 16.554 41.5665 16.092 41.5665 15.552C41.5665 14.808 41.8305 14.19 42.3585 13.698C42.8985 13.206 43.7325 12.9 44.8605 12.78L46.9665 12.546V11.952C46.9665 11.748 46.8645 11.55 46.6605 11.358C46.4685 11.154 46.1625 11.052 45.7425 11.052C45.3705 11.052 45.0465 11.148 44.7705 11.34C44.5065 11.532 44.3265 11.808 44.2305 12.168L41.9805 11.358C42.2445 10.554 42.7065 9.942 43.3665 9.522C44.0385 9.09 44.8665 8.874 45.8505 8.874C47.0745 8.874 48.0045 9.18 48.6405 9.792C49.2765 10.404 49.5945 11.226 49.5945 12.258V18H47.1465ZM46.9665 14.166L45.2925 14.364C44.9565 14.412 44.6985 14.52 44.5185 14.688C44.3505 14.844 44.2665 15.042 44.2665 15.282C44.2665 15.51 44.3625 15.702 44.5545 15.858C44.7465 16.014 45.0105 16.092 45.3465 16.092C45.6825 16.092 45.9705 16.026 46.2105 15.894C46.4505 15.75 46.6365 15.552 46.7685 15.3C46.9005 15.036 46.9665 14.712 46.9665 14.328V14.166ZM51.4894 5.04H54.1174V18H51.4894V5.04ZM56.1125 5.04H58.7405V18H56.1125V5.04ZM64.9115 18.126C63.9875 18.126 63.1835 17.934 62.4995 17.55C61.8155 17.154 61.2815 16.602 60.8975 15.894C60.5255 15.186 60.3395 14.358 60.3395 13.41C60.3395 12.534 60.5255 11.754 60.8975 11.07C61.2695 10.386 61.7915 9.852 62.4635 9.468C63.1355 9.072 63.8975 8.874 64.7495 8.874C65.6495 8.874 66.4295 9.06 67.0895 9.432C67.7495 9.792 68.2655 10.308 68.6375 10.98C69.0095 11.652 69.1955 12.432 69.1955 13.32C69.1955 13.464 69.1895 13.614 69.1775 13.77C69.1655 13.926 69.1475 14.1 69.1235 14.292H63.1475C63.2075 14.616 63.3215 14.898 63.4895 15.138C63.6575 15.366 63.8675 15.546 64.1195 15.678C64.3835 15.798 64.6835 15.858 65.0195 15.858C65.3915 15.858 65.7275 15.78 66.0275 15.624C66.3275 15.468 66.5495 15.246 66.6935 14.958L69.0515 15.606C68.6915 16.41 68.1515 17.034 67.4315 17.478C66.7115 17.91 65.8715 18.126 64.9115 18.126ZM66.3335 12.582C66.3215 12.282 66.2435 12.018 66.0995 11.79C65.9555 11.562 65.7695 11.382 65.5415 11.25C65.3135 11.118 65.0615 11.058 64.7855 11.07C64.5095 11.082 64.2575 11.154 64.0295 11.286C63.8135 11.406 63.6275 11.58 63.4715 11.808C63.3155 12.024 63.2195 12.282 63.1835 12.582H66.3335ZM71.2582 8.334C71.2582 7.482 71.4142 6.798 71.7262 6.282C72.0502 5.766 72.5122 5.406 73.1122 5.202C73.7122 4.998 74.4442 4.944 75.3082 5.04V7.38C74.8282 7.308 74.4682 7.374 74.2282 7.578C74.0002 7.77 73.8862 8.088 73.8862 8.532V9H75.3802V11.322H73.8862V18H71.2582V11.322H70.2322V9H71.2582V8.334ZM77.5567 9V6.48H80.2387V9H82.0927V11.322H80.2387V14.562C80.2387 14.97 80.3287 15.258 80.5087 15.426C80.7007 15.594 80.9407 15.684 81.2287 15.696C81.5167 15.696 81.8047 15.672 82.0927 15.624V17.91C81.4807 18.018 80.8987 18.048 80.3467 18C79.7947 17.964 79.3087 17.82 78.8887 17.568C78.4807 17.316 78.1567 16.944 77.9167 16.452C77.6767 15.96 77.5567 15.33 77.5567 14.562V11.322H76.2967V9H77.5567ZM89.7615 9H92.6055L87.2775 21.6H84.5955L86.3775 17.586L82.8135 9H85.7475L87.7455 14.382L89.7615 9Z" fill="#212121"/>
<path d="M5.70985 2.49439C6.07353 1.86458 6.58038 1.54997 7.22962 1.54997C7.87905 1.54997 8.38533 1.86458 8.74959 2.49439C9.11346 3.12401 9.29569 4.23545 9.29569 5.82931C9.29569 7.42297 9.11346 8.53461 8.74959 9.16442C8.38533 9.79422 7.87905 10.1086 7.22962 10.1086C6.58038 10.1086 6.07353 9.79422 5.70985 9.16442C5.34539 8.53461 5.16375 7.42297 5.16375 5.82931C5.16375 4.23545 5.34539 3.12401 5.70985 2.49439ZM2.60507 9.56735C3.92202 10.4446 5.70792 10.699 7.22962 10.699C9.35476 10.699 10.9679 10.2516 12.0699 9.35607C13.1717 8.4611 13.7226 7.28558 13.7226 5.82931C13.7226 4.14847 12.8428 2.57001 11.3169 1.80974C10.8241 1.56421 10.3196 1.3689 9.78252 1.23978C9.00512 1.05313 8.15422 0.959417 7.22962 0.959417C5.10467 0.959417 3.49099 1.40719 2.38936 2.30235C1.28734 3.1979 0.736816 4.37342 0.736816 5.82931C0.736816 6.69522 0.899027 7.43759 1.22365 8.05759C1.55808 8.69605 2.03799 9.18943 2.60507 9.56735Z" fill="#212121"/>
<path d="M13.6488 13.311C12.8123 12.4551 11.6566 12.0271 10.1809 12.0271H4.57326C3.68791 12.0271 3.07273 11.9386 2.72867 11.7616C2.4562 11.6211 2.23857 11.3879 2.21663 11.0689C2.19874 10.8104 2.3242 10.6176 2.4689 10.4227C1.52198 10.3425 0.503279 10.8816 0.193475 11.7951C-0.230822 13.0458 0.129782 14.43 1.17927 15.2441C1.96609 15.8543 3.09774 16.1591 4.57326 16.1591H10.1809C12.5421 16.1591 13.7225 16.7981 13.7225 18.0774C13.7225 19.0809 13.1666 19.922 12.0549 20.6008C10.819 21.3555 9.35944 21.7073 7.92395 21.7912C6.38051 21.8816 4.96215 21.6411 3.53128 21.0803C4.11067 20.6512 4.47204 19.9389 4.46569 19.2179C4.45973 18.497 4.08258 17.787 3.48337 17.3862C2.88416 16.9854 2.07866 16.9093 1.41864 17.1995C0.972602 17.3954 0.601796 17.7454 0.347218 18.1611C0.102068 18.5613 -0.040317 19.0354 0.0100984 19.5023C0.0682107 20.0415 0.379932 20.5312 0.786911 20.8902C1.96128 21.9264 3.82434 22.233 5.32949 22.3983C7.02495 22.5843 8.68211 22.4479 10.3439 22.1008C11.7132 21.8149 13.0919 21.1702 13.9705 20.0437C14.6494 19.1738 14.9032 17.9785 14.9032 16.8968C14.9032 15.3622 14.4847 14.1669 13.6488 13.311Z" fill="#212121"/>
<path d="M18.3664 2.24906C18.3664 3.49135 17.3594 4.4985 16.1171 4.4985C14.8748 4.4985 13.8677 3.49135 13.8677 2.24906C13.8677 1.00695 14.8748 -6.04048e-06 16.1171 -6.04048e-06C17.3594 -6.04048e-06 18.3664 1.00695 18.3664 2.24906Z" fill="#D94625"/>
</svg>
