<svg width="99" height="22" viewBox="0 0 99 22" fill="none" xmlns="http://www.w3.org/2000/svg">
<path d="M20.6412 14.8651C20.5785 14.7146 15.4247 4.50178 15.3401 4.36099C15.0692 3.71092 14.5929 3.13978 13.9384 2.75637C12.337 1.81772 10.2782 2.35492 9.33976 3.95624C8.6959 5.0545 8.74671 6.36822 9.35877 7.38793C9.42141 7.53843 14.3543 17.3135 14.4387 17.4543C14.5015 17.605 14.5752 17.7513 14.6598 17.8921C14.9305 18.5423 15.407 19.1133 16.0616 19.4969C17.6629 20.4353 19.7217 19.8979 20.6602 18.2968C21.3038 17.1985 21.2532 15.885 20.6412 14.8651Z" fill="#D94625"/>
<path d="M14.6895 7.95422C15.2537 7.35302 15.5997 6.54509 15.5997 5.6557C15.5997 3.79974 14.0951 2.295 12.2391 2.295C11.0976 2.295 10.09 2.86439 9.48235 3.73438C9.37162 3.85249 1.00317 14.1658 0.910139 14.2988C0.346136 14.9 0 15.7081 0 16.5975C0 18.4535 1.50467 19.958 3.36069 19.958C4.50204 19.958 5.50978 19.3885 6.11719 18.5187C6.22812 18.4007 14.5964 8.08726 14.6895 7.95422Z" fill="#212121"/>
<path d="M29.0898 7.95422C29.654 7.35302 30 6.54509 30 5.6557C30 3.79974 28.4954 2.295 26.6395 2.295C25.498 2.295 24.4903 2.86439 23.8827 3.73438C23.7719 3.85249 15.4036 14.1658 15.3105 14.2988C14.7464 14.9 14.4004 15.7081 14.4004 16.5975C14.4004 18.4535 15.9049 19.958 17.7609 19.958C18.9024 19.958 19.9101 19.3885 20.5175 18.5187C20.6284 18.4007 28.9967 8.08726 29.0898 7.95422Z" fill="#212121"/>
<path d="M39.098 4.4H48.26V6.722H41.888V9.512H46.658V11.726H41.888V17H39.098V4.4ZM53.3682 17L53.1882 15.884C52.8762 16.268 52.5402 16.568 52.1802 16.784C51.8202 17 51.3342 17.108 50.7222 17.108C50.1702 17.108 49.6722 17.012 49.2282 16.82C48.7842 16.616 48.4302 16.322 48.1662 15.938C47.9142 15.554 47.7882 15.092 47.7882 14.552C47.7882 13.808 48.0522 13.19 48.5802 12.698C49.1202 12.206 49.9542 11.9 51.0822 11.78L53.1882 11.546V10.952C53.1882 10.748 53.0862 10.55 52.8822 10.358C52.6902 10.154 52.3842 10.052 51.9642 10.052C51.5922 10.052 51.2682 10.148 50.9922 10.34C50.7282 10.532 50.5482 10.808 50.4522 11.168L48.2022 10.358C48.4662 9.554 48.9282 8.942 49.5882 8.522C50.2602 8.09 51.0882 7.874 52.0722 7.874C53.2962 7.874 54.2262 8.18 54.8622 8.792C55.4982 9.404 55.8162 10.226 55.8162 11.258V17H53.3682ZM53.1882 13.166L51.5142 13.364C51.1782 13.412 50.9202 13.52 50.7402 13.688C50.5722 13.844 50.4882 14.042 50.4882 14.282C50.4882 14.51 50.5842 14.702 50.7762 14.858C50.9682 15.014 51.2322 15.092 51.5682 15.092C51.9042 15.092 52.1922 15.026 52.4322 14.894C52.6722 14.75 52.8582 14.552 52.9902 14.3C53.1222 14.036 53.1882 13.712 53.1882 13.328V13.166ZM59.6911 14.048C59.7511 14.276 59.8471 14.462 59.9791 14.606C60.1231 14.738 60.2911 14.834 60.4831 14.894C60.6751 14.954 60.8731 14.984 61.0771 14.984C61.4491 14.984 61.7371 14.918 61.9411 14.786C62.1451 14.654 62.2471 14.486 62.2471 14.282C62.2471 14.078 62.1691 13.928 62.0131 13.832C61.8691 13.724 61.6771 13.64 61.4371 13.58C61.1971 13.508 60.9451 13.442 60.6811 13.382C60.3811 13.31 60.0451 13.226 59.6731 13.13C59.3011 13.022 58.9471 12.878 58.6111 12.698C58.2751 12.506 57.9991 12.254 57.7831 11.942C57.5671 11.618 57.4591 11.216 57.4591 10.736C57.4591 10.184 57.6091 9.692 57.9091 9.26C58.2091 8.828 58.6351 8.492 59.1871 8.252C59.7391 8 60.3931 7.874 61.1491 7.874C62.0851 7.874 62.8471 8.066 63.4351 8.45C64.0231 8.834 64.4371 9.374 64.6771 10.07L62.3911 10.646C62.3311 10.49 62.2411 10.37 62.1211 10.286C62.0011 10.19 61.8511 10.124 61.6711 10.088C61.5031 10.04 61.3351 10.016 61.1671 10.016C60.8551 10.016 60.6091 10.076 60.4291 10.196C60.2491 10.316 60.1591 10.466 60.1591 10.646C60.1591 10.766 60.1951 10.868 60.2671 10.952C60.3511 11.036 60.4591 11.102 60.5911 11.15C60.7351 11.198 60.8971 11.24 61.0771 11.276C61.2691 11.312 61.4731 11.36 61.6891 11.42C62.0491 11.504 62.4151 11.606 62.7871 11.726C63.1711 11.846 63.5251 12.008 63.8491 12.212C64.1851 12.404 64.4491 12.668 64.6411 13.004C64.8451 13.328 64.9531 13.748 64.9651 14.264C64.9651 14.792 64.8151 15.278 64.5151 15.722C64.2151 16.154 63.7771 16.496 63.2011 16.748C62.6251 17 61.9231 17.126 61.0951 17.126C60.0991 17.126 59.2651 16.922 58.5931 16.514C57.9211 16.106 57.4951 15.476 57.3151 14.624L59.6911 14.048ZM67.2549 8V5.48H69.9369V8H71.7909V10.322H69.9369V13.562C69.9369 13.97 70.0269 14.258 70.2069 14.426C70.3989 14.594 70.6389 14.684 70.9269 14.696C71.2149 14.696 71.5029 14.672 71.7909 14.624V16.91C71.1789 17.018 70.5969 17.048 70.0449 17C69.4929 16.964 69.0069 16.82 68.5869 16.568C68.1789 16.316 67.8549 15.944 67.6149 15.452C67.3749 14.96 67.2549 14.33 67.2549 13.562V10.322H65.9949V8H67.2549ZM73.2678 8H75.6438L75.8238 8.972C76.1238 8.648 76.4778 8.384 76.8858 8.18C77.2938 7.976 77.7378 7.874 78.2178 7.874C78.9258 7.874 79.5198 8.024 79.9998 8.324C80.4918 8.624 80.8638 9.062 81.1158 9.638C81.3798 10.214 81.5118 10.916 81.5118 11.744V17H78.8838V12.068C78.8838 11.468 78.7578 11.012 78.5058 10.7C78.2658 10.388 77.8998 10.232 77.4078 10.232C76.9038 10.232 76.5258 10.394 76.2738 10.718C76.0218 11.03 75.8958 11.486 75.8958 12.086V17H73.2678V8ZM83.7523 8H86.3803V17H83.7523V8ZM85.0663 7.082C84.5743 7.082 84.1723 6.938 83.8603 6.65C83.5603 6.35 83.4103 5.99 83.4103 5.57C83.4103 5.138 83.5603 4.778 83.8603 4.49C84.1723 4.19 84.5743 4.04 85.0663 4.04C85.5463 4.04 85.9363 4.19 86.2363 4.49C86.5483 4.778 86.7043 5.138 86.7043 5.57C86.7043 5.99 86.5483 6.35 86.2363 6.65C85.9363 6.938 85.5463 7.082 85.0663 7.082ZM88.0894 8H91.1854L92.8774 10.61L94.5514 8H97.6294L94.4614 12.482L97.6294 17H94.5514L92.8774 14.39L91.1854 17H88.0894L91.2754 12.482L88.0894 8Z" fill="#212121"/>
</svg>
